<?xml version="1.0" encoding="UTF-8" standalone="no"?>
<svg
   xmlns:dc="http://purl.org/dc/elements/1.1/"
   xmlns:cc="http://creativecommons.org/ns#"
   xmlns:rdf="http://www.w3.org/1999/02/22-rdf-syntax-ns#"
   xmlns:svg="http://www.w3.org/2000/svg"
   xmlns="http://www.w3.org/2000/svg"
   xmlns:sodipodi="http://sodipodi.sourceforge.net/DTD/sodipodi-0.dtd"
   xmlns:inkscape="http://www.inkscape.org/namespaces/inkscape"
   version="1.0"
   id="Layer_1"
   x="0px"
   y="0px"
   width="98px"
   height="98px"
   viewBox="-12.573 0.418 98 98"
   enable-background="new -12.573 0.418 98 98"
   xml:space="preserve"
   inkscape:version="0.48.4 r9939"
   sodipodi:docname="noun_project_14323.svg"
   inkscape:export-filename="C:\Users\nblumhardt\Desktop\alt-composition-64.png"
   inkscape:export-xdpi="58.775509"
   inkscape:export-ydpi="58.775509"><metadata
   id="metadata3014"><rdf:RDF><cc:Work
       rdf:about=""><dc:format>image/svg+xml</dc:format><dc:type
         rdf:resource="http://purl.org/dc/dcmitype/StillImage" /><dc:title></dc:title></cc:Work></rdf:RDF></metadata><defs
   id="defs3012" /><sodipodi:namedview
   pagecolor="#ffb400"
   bordercolor="#666666"
   borderopacity="1"
   objecttolerance="10"
   gridtolerance="10"
   guidetolerance="10"
   inkscape:pageopacity="1"
   inkscape:pageshadow="2"
   inkscape:window-width="1920"
   inkscape:window-height="1140"
   id="namedview3010"
   showgrid="false"
   inkscape:zoom="9.4183673"
   inkscape:cx="32.43662"
   inkscape:cy="49"
   inkscape:window-x="-8"
   inkscape:window-y="-8"
   inkscape:window-maximized="1"
   inkscape:current-layer="g3006" />
<g
   id="g3006">
	<path
   d="M80.073,65.769L55.1,50.23v8.914l-42.735-0.004c-4.16-0.007-7.526-3.374-7.53-7.532c0.004-4.159,3.37-7.525,7.53-7.53   c4.161,0.005,7.525,3.371,7.532,7.53v4.039h12.05v-4.039c0-10.816-8.762-19.579-19.582-19.583   C1.548,32.029-7.214,40.792-7.218,51.608c0.004,10.814,8.766,19.58,19.583,19.586H55.1V81.31L80.073,65.769z M20.148,94h12.05   V74.999h-12.05V94z M36.552,93.999h12.053V75H36.552V93.999z M36.552,55.585h12.053V29.807h9.037L42.103,4.836l-15.54,24.971h9.989   V55.585z"
   id="path3008"
   style="stroke:none;fill:#ffffff;fill-opacity:1" />
</g>
</svg>